<svg width="100" height="100" xmlns="http://www.w3.org/2000/svg">
    <g fill="none" fill-rule="evenodd">
        <path fill="#E0001B" d="M100 100V0H0v100z"/>
        <g fill="#FFF">
            <path d="M11.76 14.277c0-1.09.023-1.268-.834-1.592-.318-.118-.54-.385-.54-.798 0-.854.81-.914.908-.914h6.468v18.76c0 1.093-.024 1.27.834 1.593.319.12.54.385.54.798 0 .855-.81.915-.908.915h-6.934c-.099 0-.907-.06-.907-.915 0-.413.22-.679.539-.798.857-.323.833-.5.833-1.592V14.277zm7.105-3.304h5.464v5.989c0 .147-.024.707-.759.707-.416 0-.539-.295-.662-.737-.637-2.39-1.886-3.834-4.043-4.247v-1.712zm0 9.852c1.029-.324 1.495-1.474 1.716-2.596.123-.5.27-.972.785-.972.759 0 .636 1.062.636 1.297v6.371c0 .236.123 1.3-.636 1.3-.516 0-.662-.474-.785-.975-.221-1.12-.687-2.27-1.716-2.596v-1.829zM33.103 29.734c0 1.091-.024 1.268.835 1.592.318.12.538.385.538.798 0 .854-.809.914-.907.914h-6.936c-.097 0-.906-.06-.906-.914 0-.413.22-.678.54-.798.858-.324.833-.5.833-1.592V14.277c0-1.091.025-1.269-.833-1.592-.32-.118-.54-.384-.54-.798 0-.855.81-.915.906-.915h6.936c.098 0 .907.06.907.915 0 .414-.22.68-.538.798-.86.323-.835.501-.835 1.592v15.457zM35.898 10.973h3.528v1.711c-1.274 1.092-1.617 3.039-1.838 4.601-.074.65-.196 1.417-.882 1.417-.735 0-.808-.737-.808-.856v-6.873zm4.63 0h6.004v18.762c0 1.09-.024 1.267.834 1.592.319.118.539.384.539.797 0 .854-.809.914-.907.914h-6.934c-.099 0-.907-.06-.907-.914 0-.413.22-.679.539-.797.857-.325.832-.502.832-1.592V10.973zm10.636 6.873c0 .119-.074.856-.809.856-.685 0-.808-.767-.882-1.417-.22-1.562-.564-3.51-1.838-4.6v-1.712h3.529v6.873zM11.794 41.993c0-1.092.024-1.267-.833-1.592-.318-.119-.54-.384-.54-.798 0-.854.81-.913.907-.913h6.47v18.76c0 1.093-.026 1.269.834 1.593.318.119.539.384.539.797 0 .856-.81.915-.907.915h-6.936c-.098 0-.906-.06-.906-.915 0-.413.22-.678.539-.797.857-.324.833-.5.833-1.593V41.993zM18.9 38.69h5.464v5.988c0 .148-.025.707-.759.707-.416 0-.539-.295-.66-.736-.639-2.39-1.888-3.836-4.045-4.248V38.69zm0 9.851c1.029-.323 1.495-1.474 1.715-2.594.123-.503.271-.974.785-.974.76 0 .636 1.062.636 1.297v6.372c0 .236.123 1.299-.636 1.299-.514 0-.662-.472-.785-.974-.22-1.12-.686-2.271-1.715-2.596v-1.83zM32.82 39.958c-1.151.501-1.25 1.386-1.25 2.124v15.28c0 .737.099 1.623 1.25 2.123v1.713c-5.195-.561-7.621-5.606-7.621-11.476 0-5.87 2.426-10.915 7.621-11.474v1.71zm1.103 19.527c1.151-.5 1.25-1.386 1.25-2.123v-15.28c0-.738-.099-1.623-1.25-2.124v-1.71c5.194.56 7.62 5.604 7.62 11.474s-2.426 10.915-7.62 11.476v-1.713zM44.436 41.993c0-1.092.025-1.267-.833-1.592-.32-.119-.538-.384-.538-.798 0-.854.807-.913.905-.913h6.47v18.76c0 1.093-.026 1.269.834 1.593.318.119.539.384.539.797 0 .856-.81.915-.908.915H43.97c-.098 0-.905-.06-.905-.915 0-.413.219-.678.538-.797.858-.324.833-.5.833-1.593V41.993zm7.106-3.303h.123c1.592 0 3.26-.06 4.73.796 1.642.973 2.473 2.595 2.499 4.837.048 3.392-1.814 4.868-4.314 5.576v.06c2.181.383 4.264 1.149 4.314 4.276v2.595c0 .266-.074.857.245.857.392 0 .465-.857 1.054-.857.318 0 .71.444.71.857 0 .856-.81 1.946-1.348 2.448-.833.826-1.715 1.062-2.769 1.062-1.053 0-2.01-.324-2.769-1.24-.858-1.062-.98-2.36-.98-3.745v-2.006c0-1.357-.024-3.01-1.495-3.186v-1.74c1.324-.148 1.495-1.122 1.495-2.567v-3.569c0-1.475-.27-2.183-1.495-2.714v-1.74zM11.794 69.71c0-1.09.024-1.268-.833-1.593-.318-.118-.54-.384-.54-.798 0-.854.81-.913.907-.913h6.47v18.76c0 1.093-.026 1.269.834 1.593.318.119.539.384.539.797 0 .856-.81.915-.907.915h-6.936c-.098 0-.906-.06-.906-.915 0-.413.22-.678.539-.797.857-.324.833-.5.833-1.593V69.71zm7.106-3.304h5.464v5.988c0 .147-.024.707-.759.707-.416 0-.539-.294-.662-.736-.637-2.39-1.887-3.836-4.043-4.248v-1.711zm0 9.851c1.029-.323 1.495-1.474 1.715-2.595.123-.502.27-.973.785-.973.76 0 .636 1.062.636 1.297v6.372c0 .236.123 1.299-.636 1.299-.515 0-.662-.472-.785-.974-.22-1.12-.686-2.271-1.715-2.596v-1.83zM27.232 69.71c0-1.09.025-1.268-.833-1.593-.318-.118-.539-.384-.539-.798 0-.854.809-.913.907-.913h6.47v18.76c0 1.093-.026 1.269.833 1.593.318.119.54.384.54.797 0 .856-.81.915-.908.915h-6.935c-.098 0-.907-.06-.907-.915 0-.413.221-.678.54-.797.857-.324.832-.5.832-1.593V69.71zm7.108-3.304h.121c1.593 0 3.259-.06 4.73.796 1.641.973 2.475 2.595 2.5 4.837.048 3.393-1.814 4.869-4.314 5.576v.06c2.18.383 4.265 1.15 4.313 4.276v2.596c0 .265-.073.856.245.856.393 0 .465-.856 1.054-.856.319 0 .711.443.711.856 0 .856-.809 1.946-1.348 2.449-.833.825-1.715 1.062-2.77 1.062-1.053 0-2.01-.325-2.768-1.24-.858-1.063-.98-2.36-.98-3.746v-2.006c0-1.357-.025-3.01-1.494-3.186v-1.74c1.322-.148 1.494-1.122 1.494-2.567V70.86c0-1.475-.27-2.183-1.494-2.714v-1.74zM45 66.406h6.47V88.47H45c-.099 0-.907-.06-.907-.914 0-.412.22-.678.539-.796.858-.325.833-.503.833-1.593V69.71c0-1.09.025-1.268-.833-1.592-.32-.119-.54-.384-.54-.797 0-.855.81-.914.908-.914zm7.572 0h5.463v5.988c0 .147-.024.708-.759.708-.416 0-.538-.296-.66-.738-.638-2.39-1.887-3.835-4.044-4.247v-1.711zm0 9.852c1.029-.324 1.495-1.475 1.716-2.595.122-.503.27-.974.783-.974.76 0 .638 1.062.638 1.298v6.372c0 .236.121 1.297-.638 1.297-.514 0-.661-.472-.783-.972-.221-1.123-.687-2.272-1.716-2.596v-1.83zm0 10.502c1.985-.295 3.503-1.917 4.166-4.277.172-.443.318-.916.758-.916.785 0 .71.887.71 1.003v5.9h-5.634v-1.71zM60.904 66.406h6.47V88.47h-6.47c-.098 0-.907-.06-.907-.914 0-.412.22-.678.54-.796.858-.325.833-.503.833-1.593V69.71c0-1.09.025-1.268-.833-1.592-.32-.119-.54-.384-.54-.797 0-.855.81-.914.907-.914zm7.572 0h5.464v5.988c0 .147-.025.708-.759.708-.417 0-.539-.296-.662-.738-.637-2.39-1.887-3.835-4.043-4.247v-1.711zm0 9.852c1.03-.324 1.494-1.475 1.715-2.595.123-.503.27-.974.785-.974.76 0 .636 1.062.636 1.298v6.372c0 .236.123 1.297-.636 1.297-.515 0-.662-.472-.785-.972-.22-1.123-.685-2.272-1.715-2.596v-1.83zm0 10.502c1.985-.295 3.504-1.917 4.166-4.277.171-.443.32-.916.759-.916.785 0 .71.887.71 1.003v5.9h-5.635v-1.71z"/>
        </g>
    </g>
</svg>
